{"title":"Salvage 2009 DVDrip English Klam","uid":6794605,"size":955621616,"categoryP":"video","categoryS":"movies","magnet":"?xt=urn:btih:8294f963bb3d4a45fa82ef0bb4cd1240975959e1&amp;dn=Salvage+2009+DVDrip+English+Klam&amp;tr=udp%3A%2F%2Ftracker.openbittorrent.com%3A80&amp;tr=udp%3A%2F%2Fopen.demonii.com%3A1337&amp;tr=udp%3A%2F%2Ftracker.coppersurfer.tk%3A6969&amp;tr=udp%3A%2F%2Fexodus.desync.com%3A6969","seeders":0,"leechers":1,"uploader":"Klambake","files":-1,"time":1320402122,"description":"With: Shahid Ahmed, Dean Andrews and Sufian Ashraf\n\nWanneer een zee-container aan land spoelt, raken de bewoners van een slaapstadje in de ban van agressie, terreur en paranoia. Te midden van de chaos en omringd door een miltaire overmacht stelt een moeder alles in het werk om haar dochter te redden.\n\nWhen a container washes ashore the residents of a sleepy cul-de-sac are plunged into violence, terror and paranoia. Ring fenced by the military a single mother must overcome all the odds to save her daughter. \n\n------------------ Dutch Friends ------------------\nYou can find my Friends at: http://www.Film-Test.nl \n------ They got my dutch subs ----- and more ------\n\nGeneral:\n\nComplete name                    : Salvage\\Salvage.avi\nFormat                           : AVI\nFormat/Info                      : Audio Video Interleave\nFile size                        : 911 MiB\nDuration                         : 1h 15mn\nOverall bit rate                 : 1 689 Kbps\n\nVideo:\n\nFormat                           : MPEG-4 Visual\nFormat profile                   : Simple@L3\nFormat settings, BVOP            : No\nFormat settings, QPel            : No\nFormat settings, GMC             : No warppoints\nFormat settings, Matrix          : Default (H.263)\nCodec ID                         : XVID\nCodec ID/Hint                    : XviD\nDuration                         : 1h 15mn\nBit rate                         : 1 230 Kbps\nWidth                            : 720 pixels\nHeight                           : 304 pixels\nDisplay aspect ratio             : 2.35:1\nFrame rate                       : 25.000 fps\nColor space                      : YUV\nChroma subsampling               : 4:2:0\nBit depth                        : 8 bits\nScan type                        : Progressive\nCompression mode                 : Lossy\nBits/(Pixel*Frame)               : 0.225\nStream size                      : 664 MiB (73%)\nWriting library                  : XviD 1.1.2 (UTC 2006-11-01)\n\nAudio:\n\nFormat                           : AC-3\nFormat/Info                      : Audio Coding 3\nMode extension                   : CM (complete main)\nCodec ID                         : 2000\nDuration                         : 1h 15mn\nBit rate mode                    : Constant\nBit rate                         : 448 Kbps\nChannel(s)                       : 6 channels\nChannel positions                : Front: L C R, Side: L R, LFE\nSampling rate                    : 48.0 KHz\nBit depth                        : 16 bits\nCompression mode                 : Lossy\nStream size                      : 242 MiB (27%)\nAlignment                        : Aligned on interleaves\nInterleave, duration             : 32 ms (0.80 video frame)\n\n","torrent":{"xt":"urn:btih:8294f963bb3d4a45fa82ef0bb4cd1240975959e1","amp;dn":"Salvage+2009+DVDrip+English+Klam","amp;tr":["udp%3A%2F%2Ftracker.openbittorrent.com%3A80","udp%3A%2F%2Fopen.demonii.com%3A1337","udp%3A%2F%2Ftracker.coppersurfer.tk%3A6969","udp%3A%2F%2Fexodus.desync.com%3A6969"],"infoHash":"8294f963bb3d4a45fa82ef0bb4cd1240975959e1","infoHashBuffer":{"type":"Buffer","data":[130,148,249,99,187,61,74,69,250,130,239,11,180,205,18,64,151,89,89,225]},"announce":[],"urlList":[]}}